# xmcd
#
# Track frame offsets:
#	150
#	21527
#	31122
#	74307
#	94947
#	140845
#	154687
#	164877
#	231045
#	261640
#	287840
#
# Disc length: 4425 seconds
#
# Revision: 0
# Processed by: cddbd v1.4PL0 Copyright (c) Steve Scherf et al.
# Submitted via: audiograbber 1.81.02
#
DISCID=a811470b
DTITLE=Johann Wolfgang von Goethe - Die Leiden des jungen Werther CD2
DYEAR=1994
DGENRE=Vocal
TTITLE0=Lotte
TTITLE1=Sehnsucht
TTITLE2=Besuch mit Lotte beim Landpfarrer
TTITLE3=Vielfaches Zusammensein mit ihr
TTITLE4=Wachsende Leidenschaft
TTITLE5=Albert kommt an
TTITLE6=Inneres Schwanken
TTITLE7=Gespräch mit Albert über den Selbstmord, Geschichte der Selbstmörderin
TTITLE8=Sehnsucht nach Unendlichkeit und Tod
TTITLE9=Wachsende Verzweiflung, Entschluß zur Abreise
TTITLE10=Nächtliches Gespräch mit Lotte und Albert über den Tod
EXTD=
EXTT0=
EXTT1=
EXTT2=
EXTT3=
EXTT4=
EXTT5=
EXTT6=
EXTT7=
EXTT8=
EXTT9=
EXTT10=
PLAYORDER=
